/* XPM */
static char * wall2_xpm[] = {
"128 128 62 1",
" 	c None",
".	c #0D0D0C",
"+	c #302F2D",
"@	c #242523",
"#	c #282725",
"$	c #333532",
"%	c #363A38",
"&	c #2C2D2A",
"*	c #3E413D",
"=	c #464945",
"-	c #1E201D",
";	c #434542",
">	c #292A26",
",	c #272A29",
"'	c #2E302D",
")	c #363835",
"!	c #262925",
"~	c #2B2F30",
"{	c #31322E",
"]	c #11110F",
"^	c #383734",
"/	c #252729",
"(	c #3B3D3A",
"_	c #393A36",
":	c #2F3231",
"<	c #41423E",
"[	c #21211E",
"}	c #0E100E",
"|	c #3B3F40",
"1	c #3E4240",
"2	c #4F5450",
"3	c #575D59",
"4	c #4E514D",
"5	c #141413",
"6	c #201F1D",
"7	c #494A46",
"8	c #464B48",
"9	c #1F2120",
"0	c #535553",
"a	c #161816",
"b	c #090906",
"c	c #1C1D1B",
"d	c #4B4D4A",
"e	c #181715",
"f	c #171918",
"g	c #434748",
"h	c #191917",
"i	c #100F0D",
"j	c #1E1F21",
"k	c #0F1110",
"l	c #040403",
"m	c #0E0E10",
"n	c #403F3D",
"o	c #161719",
"p	c #070908",
"q	c #060806",
"r	c #5F615E",
"s	c #484745",
"t	c #676966",
"u	c #51514E",
"v	c #565954",
"w	c #61625D",
".+@##$%&*=-*;@&$>,')'!'*!!*,*'~*),'!{,--$]-!^/@^$$$&(_$&:**:{${*'*{{****{{{){_<{&'&[+{&}>&'!|12|13111231'4*)1)%1)1*'***!**)*'!-2",
"5&6&$$$$;*$=$($>$&:){!*'!*!*''**%{**'!-'&55'$#$$^^$(7%%()',&'*'**'>****<**{)_<_'{&>[[{{[*')*%1|%1%~111**=**1))%%'1))==**2='!''**",
".$$&($(%*$!8%{{;:::*>{<{*!!'~,**)*{)&-''>5@^@++$%%($(;%$)))&[''*{{<**><<)><**{{_{{&#{{'[19*8%%:02**%~,a:{{!''*::=*')==*2)**)8'=!",
"b$>+>*$&&!';${^;$')$>'<{*******,):{[[)'[>ca{@&^&&%^(%:$${!&){*[!***{'**''*<))<_{^{{{++de1%%*|:|%%184***1'***%)'1=')){)*)_4**1**)",
"5>,,'$%&'**'$$>$'>'''{*^*<*{!**-'{:&['&f[c5#c6^^,&$:&$,%$:**&){<*!!**>!@***'__<)&>&&@'2-8!(%%1$%122*222**=*)>>*_*''4*_)*))=***8=",
"}-!'&'$':,':{>%;*<'^{[{{){_{**'!:,'!-&a->ea#&&/&&$&#&&%&&:'&'<*!>*'>'**-{{-*<_{>&$&#-@'-*'$:%:g9**,22:%*={'*_{*{-)))))'*))3')**)",
"ba--,!&-!,!'&c&$$$'{*&<<){*{{*!*)'!!---->@e{+@&#&&%$$,&:',&&{*{***!***!''*{{>!*_&>>'-'{-8@@:1:2g**82**8**_{_){{[)'*)'!)')!''')-2",
"}[9!''9!@f@-@>,${'{_{{{{_**'*'{**:'-'!!-{h5@6&&+'$(,,@$,{''!'*''{'!*{!'*!''{'*{!$$>!!!:-*'@:::%0**1,****<___{_{!'=*))''!)''))112",
"}'>'![!$&)!->&#@!')'*'!'{''!''_-$$9!@@--[e][[6@@&''),,:@@,,,!:)>!!!!!!*>!'*'**!!&>!--'{-(@@&&{=&*********'*!^_>>'{-**!**%))*))*8",
"b[--!!!'$%&-&$>c!!a-aaa!!-'!!!!'$@!'[5-fcci666#j!&$:9,,,:9c&!!&&!*!!*!---!!-----!!!c}c--@''$%,;(~:*****!!,'!{^{^){******)))*)))2",
".@-c>>>+'@@!&&#c:!a--a-a!!!!!!!),&,@--@-6.]ec@669@@9k,,:'&@&,!!@-'**!!>*'{'!!'!!'9@@-@[k&9,'{>(&~*:,!*!!'**!___<***''***)1%*)*11",
"b!>[[[[&'--&#6@#!!!!!!!a!!!{''''&!9@@fa-6]icc6[@9@9&-/99c99@-!!--*!-!!--!>'!!!--!9-@f-[-:'!#!@&&~,!,!*!*''>*_<>>!)!**!-''*')')'*",
"l[#[#[[>!@>#c@#6--!!---*--''''!!,$,@jjcccmb6jj@@@----999&/999-9----!!-'--!!!!--a9999h-ca!@@>##(n*-,**,,![{<<>>!>')!{*!!!)!2'!'))",
"]c66#>&&!&{&>&>6-----!-!!''''!!),,:>@h/jcm5cj&@@!@~!&999/999@@!9--a*--*-!!!-!---99-9-9e5'c#$@#^&***'''!-*<{{{{>_!'))*'!!'=)*))''",
".b..]5c6hhc[@6hea}}aa-aa}-aa-aa-.o9f.kel..mommhhf5-aafc9f--f-aa5a-}aa--aa-aa----5-ef5}pe#>>{:#/$*!**-a*!*)[>_^>{>{{{!!'!:'')))!1",
"].c6ceccce]555e[!-!-}q}!!---a!--~,f@hoo//.im5j5af-f-f-95a-9fa}5a-a-a-a-a--a-aaaak-a-f5la###{&/&$!''!*****''<__>>-_!**''!'1''--=)",
"mo@@[#&{^[n+##[{!*!-cl$^/$&$^^|^1$~~j{$;&hi@@#>@#++&#j@@@@[[6@[6!!![![>>''!---[h][hh-[-]@@:,@/$({$&$1$&*)'&*%%!){)!)*!***!*aa*'9",
"m@#6##[&#>{[>{{#'-9!6.>6/#$>$&$@/@@9$>65@h5&c@6##6j@#6j@[@666@66!-'>['>!---a!-!-!-[-a>-},,/c%,,$@$&c!&!''&$(%'!'!!'!!*!!!*!-**,,",
"5@[@[&[&>+[+&#[{,-,!cq'&+$&$>,~$%:,/~h@/cci&6#j$&&##>+#@[&@j[@6j!-@h-![''!'-![!['[->!--f&9,~%,:&n$@@(%{$''%>!c!@!'!*-=!*'!!,-***",
"]j[#[{+>[>[[>>[{,',!@l&&##$n^$|^%%,~@#,j66]+6#@++&#$+&@#@$^+#@6#-@@-[&['!-!'!!!>'>[!&--f,//9,&,1${'!()$)''''@[$'{*'!**!**-!*,**!",
"e@@&[_^&++{&{{>{~,@,@.'&+~^j|:$1:~/%,,jf@cc:@@,~&&#&&&#&6+$+j@##-!!,>!'!'-''!{{':9,@-@c59j9/%%9*+^%&%(%{$:'*$'%$**'*!**!!!'**!**",
"e/j@{{+{^<n^<'^{:-:'ca%$&$(r|(ds~%%:$:99&oe/j@,$&+$++$++&&&#6@&@!&-@>!'>--'->'){$9:,@9j9~j~~::%%+^n+''%*(''$:'''''*!'*'!!'*''!!*",
"5[6>^[>^{_^+>'n{:-'$[h'#>n%t%$%$gg:::&&$/hmjjf/,&&&++&&#$++#6++#>*@!*!@,''*->>!!-&/fj99j9~%~~99,+{^&'(())''!':$${!''**!!*!!-!!*!",
"m@&@['{><>^^n{>{',-'c.'$>>1j~:$$%|~%,,,o6ho,>@@:@@@6j@#6@&##j&&@!!!!@!-!!>-}!'h!:f9j9/jmj9o99,:!&&^$&''%')%'')'''*'*!!*!>>'-!**!",
"566@>+&+{{<>^>{>&&>&[b!'$'1%%11:~:|19~#,/5mc@j//#&$+$^^+#@&[+&&+!>'*'>'{*-'-)>!{$@-->'!a!!'::,::^^{[''{{'{''$$'''%'&$>'{>{-*!!{*",
"mj@[@#[@{{{{{{{{${&&@}$)$$%$::||g1%~:~a/,5h&+~&/@#+$+&$+@$+&$+++!*$''!''-'*''__{!!@!'>[k'-&,&!'&{&+&^+'*&%%''''$'){%'!&{{*!--!'{",
"m6#6[[[6[[>><^<>#/>&-l*):%,:%~~/:|%:~j/(&5c@//&+$+#++#+/@_+&&&&#!$',>'*{!**->_{)*{'@[![[%9,'>!'>{{{&{'{^-@!@!''!*'!$-[&'**'*'{{'",
"56@#{++{^{{>[[>[++c&[l8:&$$:%:~%%~:,:/%/j5o&/@&$$+#+$+$&+^&$$&$+,*'*'{{>***>)_>{{<'c[*e[:/9&!!''#{{{{'${'${!':'!'-!*''^$*-'*!{{>",
"e>[{[[[{[>^'#&+&^>:$-a@-~~~/%::1~(%$@j&[@6i@&##&&+++&+^$$>@+(^n^''*>!>!>!*{''{'!!>[>[^6h--@@&#''!{{{{!>>&'$!>&$&'>$%{{^{>@{>![!{",
"e[[[[+>{{[[66>#@>&&:-5)'9~,%~99~,$@,j@@j/[i[#j#&$^%+#++$+@&+$$$+{[>>!{{**'{'_*){&_[[&[ehe@@#'!''>{{{[!!!&{%'#>&>,&&#+[>{**{-{!->",
"e[[[[>[[[{[{[+@@>&[@-5&-:,9~~///~#&j&h#c6hm&#/+++(++++++&$++++/+*>>{*<<*->{>*_{_{<*{{{hh@,&#>@#[[{![[>>>>>'&,$$&@j>>^{&&'*>['!a[",
"ee[[>>[^++&#{&+[[@[[--&!!-9~///|/~&,@6hc#ii#c/&&&^&$%+&+&(:$+&><''>'>{*>*>*{>{_<*['{&[e[!>#@!!{#{{>''>!'$',!-&/@@/,&[>[&&>!'--->",
"b[[[[[&&#@66&###6[h+65&&@+@#!-&'@@!@@cc@[h][[[['^{_^{>+>^<>[>&_{!){!{{___<<{{{_7{_[##[56#6h@#~$>[>>>[>h&&@>##>>@&j&#@@#@&#c#6h@>",
"ih6[hc#[h[@>&[c6h+@@[q+>+&#@9-!@@@@[cch66e][[[>>{{{!>{<[e[>^^{&>{'>{)'__{{_{{{{>_n&{>[]ec@#[j@@@[-'[h-6[@#[c@#6>#@&###@@/c@65hh#",
"mah[c6>[>&[>@66@@#c65i&@+@@@--@-@[--6c6ceie[6&&&{>{>{^<[@>>^^&&{''_)''![{{{[>{{_{^&[@[e]@66j@j9j[@>>[>[>@#@##>@>>@&&&###@66eh[e#",
"ll.i.i]bbii]iib.ibbiiibii.5]}}}...b...ii5q5[h[>'>>><{{'>>$+&&>+{'{>>{{!<<<{[><{{+_{#@>clpi5iimk.e]e]55]].i55.5i.ibqq.b.e5.bi.5..",
"mee5cecc[[>[@@6hc]>[e6[666[@@6cccch6[@66[eh[[!!{{{{{[[[[@{&##+^_'!)*{{{_{{{{{{{{^^{[##ci#ce@&-eohe[i>[h[c&@a@@-[h6@@@heeh@h6#@h@",
"mcee66[#&&{#@@#[#^^>[>{{#&@@&&@!@@##@@@@[he6[[[>&&{&^^^[#+#&#${_'*)'>{'{{{{_>>_{{{>[[[6ch##@!-cc[e[[[[<[#&!6#>>9[&&#++$+#6&#c#6&",
"5cc6ch#[[[&##>>&6>#+6>{[@>@@>>>@@>>#@[[6>6e[!>>>{{>^^++[>&@+&&[{!''{_{{{>{{{{{u{'{{>&&h5c6h6!@--[i[6e[e[@-@@@@@a@##@@6@h@@#@h@6&",
".ohjc6>c[ec[h6h[6[[[6+{&@&#&@[&@[#>@cc6@[he![>>[>^>{'[[{+#@+{{#^))''{>{{{<{_<>{{&>>{{>eh@#jh-!9!he[[[[[>!&@&&!@c@6j>#@&@[@h[hj>6",
"]6hh[{>>[>*[[&[>[>[{>[>[&&@&'{'>#({#[>[66]e[[[>[^>{{{&[^>&#^^n[{{)!{{')*<<{<{>{_{<>{>{[e-[----!![[[[![!&&-@&&&c@!!!'%$>!/>>@6h&>",
"ih6#>_{[{+[&^>^^{>>{+{{{#+(&'%>'{{#[&[[[>hi[[[[>[^<['{<[&#&#+>&#!!!!'){{{{_{{{<{{{>!6{6e----[&'![[{[@@,$&-)*%^$$'$'$()'>++&#[#@[",
"ieh[[[{>{'>**6^^<{>{{>n>$()_)'(({#[>+>>&>6i[&[[{__^n'+^^&^^{[>+{{!{)_{{'{_{>{{{{*>^{{{6['-5-&>---a##-&&:'f&)$$$$%*((*()*+/>$#&6&",
"ihh>{>>[{{{{{>^&<>{>{n{n($)%*$')_^^{&#>[>[][&[[{{^_${>^{[{{[[{6^''{)__<{{{{__{{{>{*>{{>h---**&-{{->[@f&@@&%$%&~^((%%(($)^++$>[6+",
".[[[6>[^{{*{&*^{{{{^^&<^{_n{{''{^'{{&>&+&6h#[[&+{nn{$&&j&>{6$(+^<{>{_{_{__>_{{{>^^_>[{[h*&&{{'[*[5-:,:>9)($/$:~%%%$$*)''[{&>>>++",
"5[[>{^>_>{{{[*<^<{{^*^{+$<_{'&_{_^{{+>[[&66#[[#&+n<n@o6^$>&#n+n>{{__{{{{{>{>_{{_<___>^h[{[!'*<'[)5,@,/,c,(1%%%$%$%%:''{*{n*{+[[[",
"i[[>{#!<^{>{&^<{<>[<*'^'{^_$$_&&{{>'+>+>#[e#[e[>&++@&@$~_:/^++^>!!{<_{{7_{<<_{{{^{{>>_[[*!{${{&&:o!,&,&~::$$$(%:~$%:>>{*[{{'{>{^",
"i[&[>[{>^{{<^^<^{*{<*{__^n{$$$$>[{{>&#+&{[e&[66+@$^n+&(+^:@&++##{!!>>!>{>_{{>{^_^{!>>>[!*'{{'{>[&59',9,$&::%:%%%($$%{*{[>^<>**'&",
"]-9,$'~'*{<<*&^+{<()$$;%11(%$*%$>&*%!'&!&f-@-!@#@9!:::'&&:+###>+>{{__>^{>_{{{>!{+++[{^6[<>_<{{^{+6###@++++^|$|^$$$$^^$(&+$:$$/~,",
"]a@'~':'{*{'{{^n<<))<<*%1==%~$%(<<{{))@['ea&#!#,&:*:&,,9$$&@&#{^{{{{_>{{_{{{{{{>6{^^'{[h{>{{'>&>&6^j@##++$^+^^+^^$$%nnn+$%^%$~>,",
"--[99:$)>>>{'*<<({)$(%>**%11($~$<*'':&-!%j5,@9j,%::):~:*&{>>^&$^{>>{_{{>>>>{>><{66@>[<h[_{{^^{+[#m^6c#@#+/+++^+^({{^$((^|(+_$~%(",
"}-@!'''$*'<*[^<{^<($''(%%:%)%:~${*$>':'@95o,@@@@&'',&&~&>{>{:&@>!>{>>>>>>{>{{>{{{eejh>]>{>>>[[[[6.@66#6@//|^+^|${&^{++$($@:(~(~$",
"}!@!&&!'{>*<<>>>1**{'()'***:~***(::%$',/h5a@@/@@9~~~,,!,[&[&>{[{!{'>!!'>{^>>{{>>$@6&c.59>>[>[[[#+m6j@jjj#+$/+^~+&>$&+$^^){'[@>:,",
"][[!9!'${{_{{>**(&'(){${~~::~~,~$,$:/9'9/hm#@/@/,,~::','&[{&&{>*>_!>>>{>>>{!>{>{@&[&6aa9>>>>>'+&+m@#j#@#/&+/+++~{+$&^^^$:{&a#$!'",
".-'&!{')___{{{{*!'%$$%$(*~~~':!~%,@,,9,9jei&&/@/':&9&',9{&''>>['[>>![!>{>>{>[>{{+~,@h@f,{>>>+{+&#.@@6jj##j/++@+&#/+:^~&[![h[&{{%",
"}@{!@$-*_<{{_{!'@*!')$($****,**!%,//&9&9jomjjcc@@,,!~,@,[[[{[[[[![[!!>![[>[![>>>&&jj5fk9![[[[[[[jmjjoo6m5oo56moj@#@@cm6&$>[{!'>@",
".{&[!!{_{_****>***'):'1)111**~!*%&,&99999fk@cccj:9@/,@999,99!c-[9!@999@9>>!--!!!/&-9,9c9%9,@@9@j@mj@j6o/@//6/++/&&,&@@{^{{{[[[[{",
"b>[c>>{${4v<<<{{(,**%1:%)%*%:*~~,~&~&999/9k9hcj@9''999,9@9-@-c--@9-f--99[>@[@!!-9/9/,9kf@j9coj,@#.+6o6@@6j##/j@@j@@&&@@[>[[[[[[>",
"]#[[{${${*{<<*>*':1*:1:::*:)~~,9,&>,&9'@ffk/cj@69,/99&/99c-9cc@c-9----9j-!>-a--a-99fc-kk9c9/,#/9@b/o666jj@&&#6/&//j/#j[#>--[[[[>",
"l[&{{{'$'{'^{**{,,~:),))11::~,:*$~,,&9&99f.c5oaa-f-f99a/a5ac5ecoafaff5fj-ha[----f}kafaq.fkkc9cfoobme66mjjcoeo66oo6hhhec[[c]]eh].",
"b[6@+$&&&>***{*{:'*::**1**:**~*:%$%&&@--@aq5k5]]qq--lk-5.k5fkfmmk555mpmkoooj-995kf9af9apk9of5555ooej5om6eoeooj6]m556[]llieh[-666",
"]+++#&&$$****$$***1*:*811***::**+&%$&!-@9fa!![[[a:!!&',@9,//,9kf-999jjj9jj9/9-99!&:~~@-@,:::+@j@$+$$j@++#&+//+&j++&&+{+_^{{n{*{*",
"6{>>>+$$7***{*$<1****:%:*~:%,,*~#!,,@!!!-f-----@-&a!'@999/9999mj99-fjj9jm9/joj~~@@!9&--!@-9@&/@#j66c66+@@#@@6j6e&&++[[[[h[[[[[>*",
"5>#++^$$*&<**<<***,:%:~::,:*::::$$>>@!'@-55---[----'-f@&/9jcjfmff9f999/j//9j9/99&!9!)@9!@@'9###j@666j#@/@66####6jj+n^[e][[['{[{{",
"}'!'*'!*<v<{{{<***:***::1:%%($($&'!#&>+6[hi[@-!c'@-9@-e>[@--[[]ef-f99999)/:&c@9@~-~::,,,,,,9-,,!!'-!,a--,~,-!,!--!9*>!h[>>>{>{'_",
"}!!!:*$'<<<*{<<v1::*~::~:|%($:*'$$!'&#@@@ch>!--c!!&@'&-!$&-@>>ee-f99-9/,&~:,,,@::~99~~9~~,%%!-~'!!!!,*,*,::**~!!!~'!>){{_{___{{{",
"}-,$'$$*<<**<<*<***:~~:~1:%|$%$&',&'{>#>#h][c[-&&,'&'!-9@'>[![ie999,@&'!~::,:,9,~,,,%,,%~:~,**'*',*'-**!::::**,,-**,*){{_{^<{_77",
"---$$''$<*'<<{'**1:,~,~:|/%%~%%*'$%&>,@@>h5@@>c>'','''&&!$(!#[6[9999@&&!):%:,@@/,%%9%~,%%~:%***!!'*!!!*!:*1%**,!,*!**)*'_^^7*___",
"}>!''''$*{*<*'>{**,,::~:~~%~&,1$$$)'@&@@[h.@66c>'$&''$''%$>->&ei9/-!'':%*$'>,@{$,*9,,*~*:,,*:~***:,:*'~*~%1%%:,~**!9***>_>__>)<{",
"}---'*,{'{<<*{<**,,$%:%:%:%,:$%@&&&@@#6@@c5#66>{'''',$'!''{&{[i[99-@':'%'$$%%&'%*,,***,':**,~*!*%:~,'',,~:1*%:~~*!*--''{-__'{{'<",
"}-!->'!*''**>{<<*&{)~~~:%:1:)%%$$':&+@@@6ce&[c>#@'',$'_&>+!!{&e[!9@''''$(($($&_(,**!**'*******'',~9,:~,~~%8%~~~**!'!'*'*'<_*{{{v",
"},-!!>****r**{*<)$$&~%9,,$~~&!$$'&@&#@hh@h5#[6{>&!'&{@$&$%>-[>e[9-,{'!$*$''(!@%$**~~*,!******'!*:*,**,:*~,%~~***,***!!*!_7<*_'_<",
".{![!{{$>^<{<^<^:**':)):$~:%%::''!''!@c[[ee[[>[&9,-''%*'&{&[[>e[''>'{{<_%%{$%'{':,:$,*'{*-'**!**11*:*)**')1:,:*:__{{_{<__7<_7_<_",
"b>[[#{>'++>{[^<_$::'$,~:%$%::%*$:':'[-[@#66[[+##@''{$:'![>>[6'[e['>!*!*<*'((%>%{&!**',>*****>***1*:%*{''))1'****_<__<_7<_<<<{_77",
".--[>>#>++^<*__{$&!':,&:~,:@/,:!&''!cc@[[[[[[>&#@'):''>!{[[[[>6hh-['-[<_%!!%$)'&:)*)'-,*!!!!!**,!:))''{'''):**~*____<___7<<<<_<4",
"b---@@@&&{*_<'+'{!->,9,~,/@/&/&99!@96c@h[6h>&#+{':$'%''{{>[{>[][h''!'>>{!''{'$>%'&*'!-$**!'*!***::!-!''')!':*~'-*)77__<<<_____{v",
"phh6[[@#>^>['>[[@@-999,!/999/@@6@@6[[cc5[e]#>>'&>>'>{{&>>[>{&[he[-!){{>>{{{6)&{{9,:'-5**!*!*,*'!!**!'!'):)*!*!***)____{_<{7_<<<7",
"iceh6@@@[[-[[+>-[--'&,,!9999@h@@-c66c5hh[]e[[>'[>*{{>{$&{&>{&&-c'>-)>^{{*<<*)'*$:&':--*!*'*!!***'*)'-)==:*'*'****_{___{_<_<<{4<v",
"ih5hh#66[hhhh[[----,&~~9j@9cco6c-c[6cecc[e[>[{'&'*{{>'^'{{>[>>]-'>![{!['{*{*^^_+)~'~'!*'!&***'**''')')****'*''**)_*<_{><<{__{<<w",
".h5hhhehe[6[[[--cca9-!@-c@9c@h[c[-[666cc[ie>[>>>''{<{{{&>>>>[[ac[![>^[h{>*>>$'*^)::''-!*'*'!**9!'*)!*))'***'***=<)_2___<4>_<_7<'",
".m..mmmmo55mib.]ibiiih.b]i.e5ae555]i]iihml5@j&j@'{*($${#9@@c-9f9>[--{!'!'!>'{**!'!~~:-,:!**!*!,*{&'<<^#{<<{+_^^^){{)'<*[->*>>>*>",
"b.m5e5e65j@6e66m66[he]e6[[eh@a5ea5ebq5hmc.5j@&@@'{$>#>'$$#@>&@k9!h-!>'*-!>''{*!!!!~,,~:*!*-'*'~!{&*^$_{^_<{{_{(+'{<<{***{*'>>**{",
".choj6j##@#@666##[[[[[[[[[[[6ehec5ecec@6comc/+&+'%'&>#&>$,>&~!a9--a!-'!'_'!>'!!'*,,,,!a--'!-a-*9*'{'&_${_<{<_nn^''__{<<***'!***{",
".jjcj66j666#6e6&[e#[[6e[[6>#h5ccc[[c@[6[/@c[jj/&!''$%$$&&&,#995f-h}[''!'>!>)*'{!!:*,~:,9--}--9~*<^{{^^(&<<{(^<+^{__'>{*'{{{**!'{",
"bjjjj6o6e66joh66[h[h6[[![6#>ce66c[[6chc6#jj/j@++@&!'!!&-&@--@-}5a}}*!'''>{'[>>>>!'*!!''!)'-a-'''[*'{${^$__n{nn&&!>>>>!'':$'{!@>*",
".@/cc@j/@&&[6j&&[[>[he[6[[@[c#c6cecc5eh66oo+6&+/$$::@-&!!!!--c5a}a!>!-!*{_)>>>{>:!!,~!!--!!a!'''^&[>$&#>[^{>^+/@*{><<{{>,'&[h''!",
"pj@cj&+&@++++#&&{>[>>{>[#[#>&>6&{{+@6@#hj6o+o6jo&'$:&&$$&:'9c5}5!![-!'!'>{>^{!{{!'!,!*'-!-a'{_>!&--*==<;<s<<ns;n*_<4<<*<7_)**{*{",
".o&+$+++6$$++&&&{[{{>>6!#&_{$^^^{+>@>@6[#6@+6//@!'$''&>&!!#--555-[!'!-!'{_>{^>>>~*!*!!!'-!---'_[***<;(<_n$<n^(^n=7v4<2*<^$)<')*{",
"m@#@++$^#+$^^$^^{{>^_>{<+^^[^{^_$n$+&++#+@6#@&+n*$^))'{*'@@#&[5@!@{'>>{>_{{__>{^**!!'''''!))!!{-!'******;;=^^^dsu<udsds^<__^{<<<",
"b&$/++|^#$n$+^|+>>^^>{{>$<<{_^^{(|+^$$&&@#&+&+$^^'*_{{){@>'&&>ah'@[!>>__{__>{{{{**!'')))!!)*_<_{*-a***'*$=^^^(duudd<<<*(;$7^^<d<",
"m#+&$/+^$^$&$(&$__{{<<^{{^{{^{{^$++++&#@6e6++$++<^''*)&$&$$&@@i5!['!{>{{{{{{{>{<*!'*''!!'{*){>!>,!'',,!,@'__d;(;<<<<u7<<(_<**vu*",
"5#+++$$/+$$nns$;<_{{^{>{(<(^_<_$(+^+++&#&6o&+/+^[+<_{{{'&$&>@@5[!!{[{>{{{>{>{{^_!*~*''!'**{{{''{***'****{%'$n$_sw<<<7<<du({<<<<d",
"5++&%$++$&(^&$^^{>>{{&{{n^>{^^>{$+$n&+@&#66$+j#$++{^$_$#'>/&##5#[>[[>{{^{{{>{{{>*''*{!!!'{''''{{''*:'*'*%$*!!-c'<^^_(=8;**$=<*<4",
"e&&+++$^^/^+^$;s<<^^*{*>{^{{^nn$+/+##6#&&j5#/@+$&^^{$+&n{>>#@6ih[![[{{{>>{{{>{{{!!!'*''{{{*)!!!{*$'$*,!*$'*-'&%$<^++#!{&$&@8^{)<",
"m^+/$$$^^$n|;+nn><^{^{<^*__<nn(n$+$@&#^&#@6#j&+${{^^+n^/&&&@@@e@>>[h>>{>>__{>{{{**!'!!{){'''>'!','$',***':'''*'{)*^&,$(%)&'/-@)&",
"b&&++++nn^%++^nn*{{<{{{[>{^{$$$^+++^$+$#&&e+6&&+>{{{{{&+@#&@@65h6>[[[>{>{{{{{{{>-!-'!){'{)!{'[!'*)''''--&'>$%'$(;=__%:,::/):''')",
"i#+&$$+&_<_{<_^{{{{{_{_{{{{{{<{<^[>>>{{[>[e{6+@@h&!'&>+>6@[@665@[[[+[[[^>+&+''[>!!!@@'{>'&&'{'!{&'[>>[@''!>>#>#&^&^:+^$+>+&[$++^",
"m#&###&+^{{{_{{{^<^{{_<{<{{{_{{{{{>![![[{6e++&@#$&%@;{6h@@@@h#5@[[[[+'[[[^&[+>[>![@---!'-&!-!![!{@$)c['>@[&>#>$#@@6@@j[&&>+&&#++",
"b6####&$<>__>{<{_^{__^^__{{{{_{{>{{{>>[#^he[&@[{_%%&+6@@#h@he#5##6[[[[[[h{[[[[[[@-![f->!!-*&[!-{-f({@-'@@!@[h@&#@&+$+h@[@@@66jj6",
"e#&&+&#&_{____{{{{{_<{^^_{{>{_{_{^>[{<{{[ee>[#@#>&&!6@h@#hhch@ih@]h[[[>[##[[[[[-'!---!{>>!'*>'*>['!!-@@-c@@>&@c@>j+&[j@@@##@@[c6",
"m6/&&##&{{{{^{>>{{{__{_{>{{<<{__^[{{^{^[[[i[e#+[->@h#[h#hehj6[..he5#['[[[[[+6>[>[--@##[--[[[>>-[>@[!'!'!@@ch#>+n^&$&&&j&n~&&@>@6",
"l6##/@+^^{__{__>{^{<____{__<{{{{{><'{#&&>]lblb]l.h.p5le.i..iiill...c]].ii]h]ee]e55]}]]]}}ab5eb.]5}}e}-.}]i]..iiiillmilllmlllliie",
"5#++&&$^<<_<7<^{{<___<_{{__{{__{+[+^^>>[[[[>+>{>&!$$&^&@&[@@hhie+@6&>{{''^^[>>[>@''>&>[['&>[[>![@@>@!!@'&#&e5#+&+@&$+~(^@$^$++[$",
"e#/&+^(^_<<{^___<___<{_{{<{<____{>+^{[>{[>>++#[#!&&&&>@@#5@#6h.##6h[+[['+&>[#>>>@>>>&#[>[>[-h[[[@>'![f--j#+ee#66j&$&&++&~+~^^$/&",
"e[&+$#n^n$++^_____<__{__{__{{__{^<{<{{{{6c6>6@@&!@!'&###hhhch#ej[h6h>>&&>>>[[[[>##[&&&>[>>[[[>[>@&[&@&@!!-@q6@66#>#>#{&&&+@&$$++",
"e6&@&@&$+&#+{{_{{_{{{_{>>{_{{{{_<'{^''>>/ee@>#+#!,:'+#>&@hhch@5#@66j>{+{>>>>![>[#&'[[>[>{>>[{>>[@>#>&@-c)&!kc>@6#&$$+##{$++$^$/+",
"66@@#&6@^++n<{^<<<{*{{!>{<<{{_{<*>&{'>{+#hi#@@/>'$*$+&+/>h6c@+e[@hh@['++{>>{>>>[$^&[>{{>>>{>{>>{&$^+:#>$!!@p6@&[$:{$^{{{&/$^&$/n",
"e6@@&+[&{<_^^_>>__{_{'{___{<_{<{<{<{+>[>&#.@&&#+${%$$+{&66+jh&e6#66>['^{{{{{{>{^'_{[{{>>>>{>{>{{$$^+'#%({{>.6#@>+^$$_$*^+^(n#+jn",
"][[##&@$^<{&&{{<{{{{>'>!_<_<_{<_'<+{$#/##e.6#@+&$$()%$^+c6&h5@5@>6[&>{{^^{{^{>_{>^_{{{>>>>{^^{{&$$$:+&$$&@>c[+>++^$__^_^$$^{&@i+",
"e&[#@@++{{><<{<<_{'{>{<*_<_{{{___^^{+#66&e5+@#$+'')%$&&>#6@eh#566h[>&'&{{{{{{{{{{{>>{_{{{>^^*>*^$^$^:::&!-$c$&66+$:_^^^_$$_{nj@n",
"e@j@@#^+{{{{[><>{'{__{{_{{{_<_{_n+(^&@&@#ei$@+&>':)({$+$@@#@h@5@[6[>>{{{{{>>>>^^{>>>^<{^<{{>{>^{$^$^+:$$-c!l>@@&&{^^+>_<^^n^n[+n",
"5[@#@#+#{'<[&{>{''''___{___<_{___#vn/>&6h@@&&/@$''':@+#>@@@6h@56[[>[>&{{{^{^^{{{{>{{{{>{{{{^>>>{^$$++$^$&&-5e&&&&+++^^__&<^n>#+>",
"5j@66#+^++#$^++$'{{!{){<<*^<>^_{$_{_'>5-&e@%&>%$_%$>/@$/''@--@]-[[>>6+>{$_<_+^^'&{^{&&{>{{__[*{><<<^<$n($!!}-@!-#_^$$+n(&n{{+&{$",
"mc6c&+_++^$+~&^({__>{_{{*{{'^*_^_^''{&;*&c!$&+$_'',&#&$:'!!&[&--[[+[#>+{+&^++{>^^>{&{{{{{^_{_^{<{{^n_$^+'['a5-'!{{$++&(+++++{_^n",
".6[#$#+@++~&++%^__>{_{{{{&<*{^<{:^n:&'(-'@''/^+$%$$$>&+&'!@!!']c[[>>++{_(<<^{*&&'[{+>>{^^__^^__<n<<___$+'''}a-9,/++(~+(^s$++{^^^",
"ij@/#j@+>6&+++++{{'>>>{^{{^{^^_^($&$)>'%!-f*+^&$($%$^$$+'!!!!'.h>[[>>++^_7_>{<{&'{'+{>{>>^{^[^_>^<_+$_+$$!&bf!,96$^n$^$_|&++>++{",
"lh@@[/[#&>+^&+&&'{>[!!{{${+&$_n$+&+^+/s6ef5$j//j@@&>+&&#'-!>[+h[>[[>[+#&[^[&&>{>&{#[+{+c{{{{<{^^^<^^^$:^{@>.k@@9@+_^n^$$'++^>{'<",
"io@c6[#+>&+>+++/>![>![>{+&$^&$^{+$@@@6j5'@h1@c@#>&&$+$&&&@##[>h#>[&[[>#>+++^{>^'>>#[&{@h^{>{{{{^<{^n:&$+!&>a9'f-&>^(^^^n_+[+{{{*",
"moj@c6@&@@[6##&@!!![[>>!@+++++#>+>@/6@h@&,o:c/#/&^:^%|^$/>@@#+6[[[+[>[>+{${{+{^{#>&@>/>>{{{>6&>'<{^_&$^^$,'e-'{$$&+^~$&^+[[[^>^{",
"5jcom[@@6@6@jcj[![![![[!>##[@>+[[>@hj6/@,>.#j,@//$~+^~$,@@j/[&[[[##[6[[>[#{[>{[[6#[#+[{^[_{[>>6{[{+>@+/>,#%k!-->&665&&6@h[[{[[[{",
"mm5j+^++{>>&#/&/>@##@6&@#++#&#@#[@#+ch#fjjb&/&##/++^:$&#>>>>#^[e[[[[[>>>{&[+&[&&>[{{{&^&++&&^$$$<_$$%/$~>>*}[-[-+&e;(^+{_e&{#&^&",
"mm56@#j@6h[#ccjj6e@@e5jeaeh6h6ce[#[h5cjh6ml56/cj[6[&+&&#>>[[e[ii[e[[>>[>[6[{[[[[>[+[6[#[/co+(~@%>[/((,$~*[hb.-[[#5@u+^$>#]e@>{$6",
"lm5mmmmi]h6ha6hji555e]5ee@65555qibbbiiqlmblmc55iecceei]mhhhee]bieie]ebe]>[ee5e6ei-ee]]]lmeecoml.#,jfo@hk}5]e]eh][][lbi]]b]blbq.5",
"mcj/@@&$[##6&$:^#c[#&@@@/$n$6#&#[6###h#$@cb/@j@6[66@&6[[>{{>{+[>[+>''>_{<<+{{_^^[+^^{^#5;^$+n$n$8d$:$($(*{!6[[[><_$$+s^s<^s<^{&+",
"5@[@66#&>[[c/@@&#ea6#666@@h#($[je[[ee5&&6hj+6[[{#{&&&+@c>{>[>>[>[[[&>__>[[[{>&>[>{[[+#@i#j&@+$(+'@[{%{%<h>>{>6>[]ch[[[>{$#$&@++#",
"mjj@#@&#[e##@@$>#@h6+66+#@@+$>666[cc6[#][hc@[{>####{#&&+{>!>{{>>{>&{[^>>>{>{>&>>[[[[j&66nej6h>#/$&'$($%**{>[>>>&#>&+[[{6h:&6@++&",
"m@@#>++>&{+^>&$@>6#>@6&#@&#@##@@[#666j[6@ce[[[+#[{{{##+^{{>>{>>!{@&{>{{_{{>>>>!>+&[#6#[e+@+65&''('>')!@'{_{>^>{<*{['{>&+$@h##&+$",
"m66#>>>##+[^$&#>@@##>@&>/##&#&+@[#[6@@6@&]c&&&[+[>+$^##@^{>><{{{{>[{_{<_{{{^>#>>+[[[[#@5#[66$;48=)%*%)$>{{^{^_'{^'^{+++$$>#@#+/^"};
